<?xml version="1.0" encoding="utf-8"?>
<!-- Generator: Adobe Illustrator 15.1.0, SVG Export Plug-In . SVG Version: 6.00 Build 0)  -->
<!DOCTYPE svg PUBLIC "-//W3C//DTD SVG 1.1//EN" "http://www.w3.org/Graphics/SVG/1.1/DTD/svg11.dtd">
<svg version="1.1" id="Ebene_1" xmlns="http://www.w3.org/2000/svg" xmlns:xlink="http://www.w3.org/1999/xlink" x="0px" y="0px"
	 width="351.3px" height="351.3px" viewBox="0 0 351.3 351.3" enable-background="new 0 0 351.3 351.3" xml:space="preserve">
<rect x="-85.5" y="-84.7" fill="none" width="520.6" height="520.6"/>
<g id="Ebene_1_1_">
	<g>
		<g>
			<path fill="none" d="M56.6,4L27.4,19.1C29,2.7,41.4-3.8,56.6,4z"/>
			<path fill="#CCBB05" d="M27.4,19.1v62.3L109,34.3L56.6,4C41.4-3.8,29,2.7,27.4,19.1z"/>
		</g>
		<polygon fill="#E6CD01" points="27.4,175.7 27.4,81.4 109,128.5 		"/>
		<polygon fill="#B4A20F" points="109,128.5 109,34.3 190.6,81.4 		"/>
		<polygon fill="#00476D" points="27.4,269.9 27.4,175.7 109,222.8 		"/>
		<g>
			<path fill="none" d="M27.4,332.2l29.2,15C41.4,355.2,29,348.6,27.4,332.2z"/>
			<path fill="#04548A" d="M56.6,347.2L109,317l-81.6-47.1v62.3C29,348.6,41.4,355.2,56.6,347.2z"/>
		</g>
		<polygon fill="#006AA4" points="109,317 109,222.8 190.6,269.9 		"/>
		<polygon fill="#E94C33" points="190.6,175.7 190.6,81.4 272.2,128.5 		"/>
		<polygon fill="#CA3725" points="190.6,269.9 190.6,175.7 272.2,222.8 		"/>
		<g>
			<path fill="none" d="M324.5,192.6l0.1-33.8C339.5,168.3,339.5,183,324.5,192.6z"/>
			<path fill="#E43D28" d="M324.6,158.8l-52.4-30.2v94.2l52.3-30.2C339.5,183,339.5,168.3,324.6,158.8z"/>
		</g>
	</g>
</g>
</svg>
